<?xml version="1.0" encoding="UTF-8" standalone="no"?>
<svg
   width="0.696667in"
   height="0.696667in"
   viewBox="0 0 209 209"
   version="1.1"
   id="svg26"
   sodipodi:docname="logo_shape_white.svg"
   inkscape:version="1.1.2 (0a00cf5339, 2022-02-04)"
   xmlns:inkscape="http://www.inkscape.org/namespaces/inkscape"
   xmlns:sodipodi="http://sodipodi.sourceforge.net/DTD/sodipodi-0.dtd"
   xmlns="http://www.w3.org/2000/svg"
   xmlns:svg="http://www.w3.org/2000/svg">
  <defs
     id="defs30" />
  <sodipodi:namedview
     id="namedview28"
     pagecolor="#ffffff"
     bordercolor="#666666"
     borderopacity="1.0"
     inkscape:pageshadow="2"
     inkscape:pageopacity="0.0"
     inkscape:pagecheckerboard="0"
     inkscape:document-units="in"
     showgrid="false"
     inkscape:zoom="64"
     inkscape:cx="3.6015625"
     inkscape:cy="25.554687"
     inkscape:window-width="1366"
     inkscape:window-height="704"
     inkscape:window-x="0"
     inkscape:window-y="0"
     inkscape:window-maximized="1"
     inkscape:current-layer="svg26" />
  <path
     id="Sélection"
     fill="none"
     stroke="black"
     stroke-width="1"
     d="M 93.00,1.21            C 93.00,1.21 101.00,1.21 101.00,1.21              118.36,0.97 136.67,4.70 152.00,13.17              206.80,43.44 222.03,116.21 184.63,166.00              176.98,176.18 166.98,185.48 156.00,191.99              144.70,198.68 131.09,204.01 118.00,205.71              86.12,209.86 52.54,199.54 30.09,175.99              15.13,160.30 2.03,135.06 2.00,113.00              1.98,102.67 1.39,92.20 3.31,82.00              7.36,60.39 22.61,35.98 40.00,22.75              57.44,9.48 71.68,4.64 93.00,1.21 Z            M 96.00,6.28            C 78.33,8.84 64.05,11.94 49.00,22.44              -0.85,57.20 -9.05,129.17 34.07,172.91              53.54,192.65 75.16,199.67 102.00,201.68              110.36,202.30 126.87,199.01 135.00,196.33              145.21,192.97 155.63,186.90 164.00,180.19              212.47,141.36 212.06,66.49 164.00,27.46              155.27,20.37 146.57,15.45 136.00,11.69              124.47,7.59 108.20,5.15 96.00,6.28 Z            M 73.01,25.95            C 78.87,25.91 80.24,29.44 83.00,34.00              83.00,34.00 95.01,54.00 95.01,54.00              95.01,54.00 122.05,99.00 122.05,99.00              124.14,102.34 131.14,111.93 128.93,115.69              127.43,118.25 123.56,117.98 121.00,118.00              121.00,118.00 105.00,118.00 105.00,118.00              102.69,118.00 99.37,118.22 97.38,116.98              95.38,115.73 93.43,112.05 92.20,110.00              92.20,110.00 82.95,95.00 82.95,95.00              82.95,95.00 63.20,63.00 63.20,63.00              61.21,59.69 56.29,52.74 56.63,49.00              56.90,45.98 61.98,38.94 63.81,36.00              66.56,31.57 68.12,28.22 73.01,25.95 Z            M 193.00,117.00            C 186.78,118.77 173.05,118.04 166.00,118.00              151.96,117.93 150.20,109.98 144.23,99.00              144.23,99.00 127.58,69.00 127.58,69.00              125.79,65.84 118.51,53.59 117.94,51.00              116.96,46.54 125.54,35.62 128.52,32.02              130.07,30.14 132.24,27.67 134.96,28.05              137.66,28.43 139.92,31.92 141.30,34.00              141.30,34.00 151.42,51.00 151.42,51.00              151.42,51.00 174.15,90.00 174.15,90.00              174.15,90.00 187.63,112.70 187.63,112.70              187.63,112.70 193.00,117.00 193.00,117.00 Z            M 42.00,71.00            C 48.77,76.10 57.70,92.24 62.69,100.00              64.62,103.00 69.44,109.59 69.58,112.98              69.80,118.12 64.66,117.97 61.00,118.00              61.00,118.00 30.00,118.00 30.00,118.00              24.08,118.00 17.71,118.62 12.00,117.00              12.00,117.00 26.31,94.00 26.31,94.00              26.31,94.00 42.00,71.00 42.00,71.00 Z            M 22.00,140.00            C 22.00,140.00 56.00,141.00 56.00,141.00              56.00,141.00 121.00,141.00 121.00,141.00              121.00,141.00 161.00,141.00 161.00,141.00              161.00,141.00 184.00,140.00 184.00,140.00              184.00,140.00 185.00,141.00 185.00,141.00              183.87,143.61 182.03,148.44 179.61,149.98              177.98,151.02 175.86,150.96 174.00,151.00              174.00,151.00 151.00,151.00 151.00,151.00              151.00,151.00 57.00,151.00 57.00,151.00              57.00,151.00 34.00,151.00 34.00,151.00              31.79,151.00 28.41,151.24 26.53,150.01              23.47,148.00 22.53,143.35 22.00,140.00 Z            M 31.00,157.00            C 31.00,157.00 175.00,157.00 175.00,157.00              173.81,161.33 170.35,165.79 166.00,167.40              163.24,168.42 147.09,168.00 143.00,168.00              143.00,168.00 62.00,168.00 62.00,168.00              57.45,168.00 42.46,168.71 39.18,167.02              35.73,165.23 32.56,160.43 31.00,157.00 Z            M 47.00,174.00            C 47.00,174.00 159.00,174.00 159.00,174.00              155.80,180.41 138.95,188.16 132.00,190.28              109.45,197.18 88.77,196.68 67.00,187.28              60.07,184.29 51.86,179.82 47.00,174.00 Z"
     style="fill:#ffffff;stroke:#ffffff;stroke-opacity:1;stroke-width:0.89999952;stroke-miterlimit:4;stroke-dasharray:none" />
</svg>
