<?xml version="1.0" encoding="UTF-8" standalone="no"?>
<svg
   width="1.82667in"
   height="0.343333in"
   viewBox="0 0 548 103"
   version="1.1"
   id="svg26"
   sodipodi:docname="motif_footer_white.svg"
   inkscape:version="1.1.2 (0a00cf5339, 2022-02-04)"
   xmlns:inkscape="http://www.inkscape.org/namespaces/inkscape"
   xmlns:sodipodi="http://sodipodi.sourceforge.net/DTD/sodipodi-0.dtd"
   xmlns="http://www.w3.org/2000/svg"
   xmlns:svg="http://www.w3.org/2000/svg">
  <defs
     id="defs30" />
  <sodipodi:namedview
     id="namedview28"
     pagecolor="#ffffff"
     bordercolor="#666666"
     borderopacity="1.0"
     inkscape:pageshadow="2"
     inkscape:pageopacity="0.0"
     inkscape:pagecheckerboard="0"
     inkscape:document-units="in"
     showgrid="false"
     inkscape:zoom="10.24"
     inkscape:cx="43.212891"
     inkscape:cy="16.259766"
     inkscape:window-width="1366"
     inkscape:window-height="704"
     inkscape:window-x="0"
     inkscape:window-y="0"
     inkscape:window-maximized="1"
     inkscape:current-layer="svg26" />
  <path
     id="Sélection"
     fill="none"
     stroke="black"
     stroke-width="1"
     d="M 2.00,0.00            C 2.00,0.00 23.00,1.00 23.00,1.00              13.31,7.46 8.10,10.67 4.00,22.00              10.20,19.07 12.93,14.54 18.00,10.21              24.54,4.61 32.39,1.38 41.00,1.04              52.53,0.59 56.85,3.79 66.00,9.65              68.06,10.97 72.14,13.93 74.41,11.48              79.01,6.49 64.61,1.87 62.00,0.00              62.00,0.00 85.00,0.00 85.00,0.00              85.37,8.15 87.97,27.11 80.21,32.71              76.49,35.40 72.35,31.85 67.39,37.21              63.46,41.47 63.88,44.44 68.00,48.00              68.04,38.92 69.41,36.68 79.00,39.00              75.07,47.47 62.99,61.02 54.00,64.00              54.05,44.29 61.04,36.78 77.00,26.00              70.23,24.24 69.07,27.14 64.87,32.00              60.12,37.49 53.12,47.60 47.00,50.74              32.99,57.91 16.99,46.34 5.00,40.00              4.42,43.47 3.50,46.66 7.15,48.83              9.26,50.08 15.92,50.21 19.00,50.80              27.84,52.50 39.96,56.09 46.00,63.00              46.00,63.00 18.00,64.00 18.00,64.00              23.39,64.05 35.27,65.49 39.48,68.81              42.00,70.79 43.62,74.18 45.00,77.00              34.49,81.37 19.77,77.21 12.04,79.57              7.69,80.90 6.48,84.72 9.45,87.40              11.25,89.04 13.74,88.92 16.00,89.00              16.00,89.00 10.00,86.00 10.00,86.00              10.85,84.28 11.48,82.42 13.39,81.59              18.05,79.57 22.01,84.62 20.96,88.99              19.74,94.09 10.18,101.36 5.18,97.53              -3.19,91.10 1.18,79.89 0.68,73.00              0.50,70.57 -0.68,66.84 1.60,65.02              3.43,63.56 10.48,64.00 13.00,64.00              11.59,54.34 20.30,57.15 26.00,59.00              22.36,56.10 17.97,53.18 13.02,54.44              8.34,55.63 1.91,68.93 0.05,57.98              0.05,57.98 0.05,54.00 0.05,54.00              0.05,54.00 0.05,20.00 0.05,20.00              0.01,17.40 -0.21,14.54 1.00,12.17              2.05,10.13 4.43,8.42 4.71,6.39              4.99,4.42 2.98,1.66 2.00,0.00 Z            M 90.00,0.00            C 90.00,0.00 102.00,0.00 102.00,0.00              100.08,4.17 96.34,7.00 96.77,10.00              97.36,14.09 104.55,17.32 102.83,21.83              101.49,25.34 93.24,29.48 92.41,34.09              91.66,38.17 96.21,45.46 95.23,48.67              94.30,51.75 82.80,50.99 80.00,51.00              80.00,51.00 80.00,64.00 80.00,64.00              80.00,64.00 65.00,63.00 65.00,63.00              65.00,63.00 66.00,77.00 66.00,77.00              66.00,77.00 51.00,73.00 51.00,73.00              57.64,64.47 69.39,57.14 76.91,49.00              88.72,36.21 94.16,16.91 90.00,0.00 Z            M 161.00,24.13            C 159.06,30.69 158.36,35.94 154.45,42.00              152.17,45.54 149.69,48.50 146.00,50.64              141.35,53.33 137.25,54.10 132.00,53.24              116.74,50.74 109.49,32.99 110.04,19.00              110.18,15.44 111.99,3.04 114.70,0.99              116.52,-0.38 121.68,0.00 124.00,0.00              119.49,12.28 113.48,17.73 119.90,32.00              123.76,40.56 135.14,50.47 145.00,45.55              151.24,42.43 153.83,37.20 156.00,31.00              152.61,34.38 149.34,37.99 145.00,40.30              140.95,42.18 137.13,42.40 133.00,40.30              122.32,35.33 120.62,22.22 123.55,12.00              125.53,5.08 131.33,-0.67 139.00,0.72              141.22,1.12 144.04,2.24 146.00,3.36              149.85,5.57 152.89,8.90 156.00,12.00              156.00,12.00 150.00,0.00 150.00,0.00              151.76,0.06 153.84,-0.10 155.35,0.99              158.23,3.08 159.83,13.45 160.00,17.00              156.50,17.00 147.30,16.05 145.46,19.55              144.30,21.76 146.14,23.47 148.06,24.13              150.85,25.40 157.96,24.56 161.00,24.13 Z            M 164.00,16.00            C 164.17,12.50 165.58,3.10 168.51,1.02              170.17,-0.15 173.04,0.03 175.00,0.00              171.17,5.48 168.70,6.35 167.00,13.00              170.20,9.66 172.96,6.04 177.01,3.68              179.35,2.33 182.33,1.16 185.00,0.71              208.64,-3.27 206.40,45.97 183.00,41.72              180.46,41.26 178.06,39.90 176.00,38.39              172.33,35.70 169.71,32.59 167.00,29.00              168.86,35.53 172.61,42.39 179.00,45.43              188.95,50.17 199.98,40.58 204.20,32.00              206.71,26.06 206.63,16.12 204.20,10.00              204.20,10.00 200.00,0.00 200.00,0.00              202.33,0.00 207.47,-0.38 209.30,0.99              212.88,3.67 214.14,18.54 213.96,23.00              213.12,44.47 194.54,62.03 177.04,50.44              173.22,47.91 171.16,45.02 169.12,41.00              166.44,35.71 163.93,30.90 163.00,25.00              163.00,25.00 180.00,24.00 180.00,24.00              177.52,15.76 171.03,17.26 164.00,16.00 Z            M 218.00,0.00            C 218.00,0.00 228.00,0.00 228.00,0.00              228.00,0.00 222.00,10.00 222.00,10.00              222.00,10.00 218.00,0.00 218.00,0.00 Z            M 237.00,4.00            C 237.07,-1.73 244.65,0.00 249.00,0.00              249.00,0.00 249.00,2.00 249.00,2.00              249.00,2.00 237.00,4.00 237.00,4.00 Z            M 230.00,10.00            C 235.24,8.51 239.63,9.07 245.00,9.00              248.00,8.96 251.03,9.07 253.15,6.57              254.57,4.90 254.81,2.30 256.56,0.88              258.67,-0.52 271.41,-0.34 273.86,0.88              275.85,1.61 275.99,2.33 277.00,4.00              269.46,5.02 262.42,6.56 256.00,10.91              251.85,13.73 249.15,16.94 246.31,21.00              243.41,25.14 241.87,28.14 240.44,33.00              233.16,57.68 255.47,76.82 278.00,80.00              275.44,84.96 263.37,95.14 258.00,97.00              258.00,97.00 256.00,75.00 256.00,75.00              256.00,75.00 228.00,76.00 228.00,76.00              228.00,76.00 240.00,56.00 240.00,56.00              240.00,56.00 219.00,48.00 219.00,48.00              221.82,42.21 232.12,34.51 238.00,32.00              238.00,32.00 230.00,10.00 230.00,10.00 Z            M 278.00,4.00            C 284.10,-1.76 292.06,0.00 300.00,0.00              300.23,2.78 300.58,7.51 302.58,9.60              305.68,12.81 316.98,10.01 321.00,9.00              321.00,9.00 316.35,29.79 316.35,29.79              316.35,29.79 323.00,34.42 323.00,34.42              323.00,34.42 336.00,42.00 336.00,42.00              336.00,42.00 322.00,50.02 322.00,50.02              322.00,50.02 316.99,55.10 316.99,55.10              316.99,55.10 320.00,63.00 320.00,63.00              320.00,63.00 326.00,76.00 326.00,76.00              326.00,76.00 299.00,74.00 299.00,74.00              299.00,74.00 296.00,98.00 296.00,98.00              290.80,94.21 281.02,83.93 279.00,78.00              306.72,76.71 321.53,46.35 307.55,23.00              299.28,9.20 290.95,9.68 278.00,4.00 Z            M 305.00,0.00            C 310.69,0.00 314.97,-1.35 317.00,5.00              317.00,5.00 306.00,6.00 306.00,6.00              306.00,6.00 305.00,0.00 305.00,0.00 Z            M 324.00,0.00            C 327.65,0.05 329.83,-0.18 332.83,2.31              335.72,4.71 339.01,10.26 344.04,14.07              354.70,22.17 374.77,24.98 375.00,6.00              375.00,6.00 375.00,0.00 375.00,0.00              375.00,0.00 383.00,0.00 383.00,0.00              383.50,3.73 383.76,7.81 386.30,10.79              392.99,18.63 404.98,23.35 413.82,16.21              417.87,12.94 422.77,3.65 432.00,4.15              433.96,4.26 436.09,4.86 437.39,6.43              440.71,10.45 435.67,15.89 432.68,18.41              424.01,25.70 417.12,23.22 402.00,31.87              399.66,33.21 391.07,37.99 393.17,41.54              395.06,44.73 400.65,38.32 402.00,37.09              404.31,34.99 406.21,33.43 409.00,31.99              414.77,29.03 430.67,24.73 436.91,26.42              441.32,27.61 442.38,31.10 443.66,35.00              448.38,49.49 445.92,49.45 448.00,58.00              448.00,58.00 408.00,59.00 408.00,59.00              408.54,48.22 418.24,39.97 425.90,44.18              428.83,45.78 435.10,58.15 439.97,50.69              443.51,45.27 435.97,32.22 426.00,33.32              420.21,33.95 413.20,37.82 409.32,42.09              406.55,45.14 404.81,49.50 400.91,50.90              397.29,52.61 388.65,51.01 384.00,50.90              384.00,50.90 357.00,50.90 357.00,50.90              353.08,50.39 347.68,51.47 344.15,49.57              340.31,47.50 338.23,33.76 341.60,30.70              343.81,28.90 350.23,30.19 353.00,30.70              362.36,31.87 374.78,31.08 378.00,42.00              378.00,42.00 354.00,41.00 354.00,41.00              358.46,33.65 361.14,37.16 368.00,37.00              364.14,35.71 360.19,33.44 356.02,34.66              352.23,35.78 347.69,39.88 352.26,43.30              354.80,45.20 358.03,44.87 361.00,45.17              361.00,45.17 383.00,46.00 383.00,46.00              382.93,43.06 382.94,40.79 381.77,38.00              375.15,22.18 355.46,28.73 346.00,25.11              341.96,23.57 339.45,20.16 336.73,17.00              332.30,11.85 326.47,6.30 324.00,0.00 Z            M 335.00,0.00            C 335.00,0.00 355.00,3.97 355.00,3.97              355.00,3.97 371.00,0.00 371.00,0.00              370.99,2.78 371.21,6.42 369.83,8.89              367.38,13.25 362.43,13.62 358.00,13.24              348.73,12.44 339.81,8.28 335.00,0.00 Z            M 387.00,0.00            C 387.00,0.00 410.00,0.00 410.00,0.00              405.55,6.74 401.82,5.21 395.00,3.00              397.15,4.90 399.09,6.88 402.00,7.53              408.97,9.09 415.50,2.31 418.17,0.98              420.70,-0.28 424.21,0.00 427.00,0.00              421.07,7.90 411.01,13.79 401.00,13.98              395.33,14.10 389.85,13.04 387.60,7.00              386.88,5.08 387.01,2.07 387.00,0.00 Z            M 443.00,0.00            C 443.00,0.00 456.00,0.00 456.00,0.00              456.00,0.00 455.00,8.00 455.00,8.00              450.35,6.22 446.39,3.66 443.00,0.00 Z            M 462.00,0.00            C 462.00,0.00 483.00,1.00 483.00,1.00              480.66,2.21 467.83,7.32 471.91,11.55              474.14,13.86 477.95,11.42 480.00,10.15              488.20,5.08 493.88,1.38 504.00,1.04              523.73,0.38 530.49,13.76 542.00,22.00              540.62,9.79 530.67,7.19 524.00,0.00              524.00,0.00 545.00,0.00 545.00,0.00              538.75,11.54 547.91,6.08 547.98,20.00              547.98,20.00 547.98,53.00 547.98,53.00              547.98,53.00 547.98,56.96 547.98,56.96              546.99,68.04 537.60,55.70 533.00,54.61              528.25,53.48 524.48,56.23 521.00,59.00              528.07,57.74 532.92,54.33 535.00,64.00              540.09,63.47 543.34,63.84 548.00,66.00              547.23,68.40 545.85,71.53 545.96,74.00              545.96,74.00 547.30,80.00 547.30,80.00              548.01,85.11 546.18,93.77 542.37,97.42              536.62,102.91 523.35,91.32 526.57,84.39              527.80,81.76 532.76,80.01 534.83,82.58              535.97,84.00 535.90,86.28 536.00,88.00              536.00,88.00 532.00,86.00 532.00,86.00              533.86,92.59 540.34,87.14 540.26,84.02              540.15,79.93 534.02,79.46 531.00,79.17              521.67,78.26 511.07,80.21 502.00,78.00              504.27,64.37 517.61,66.18 528.00,63.00              528.00,63.00 501.00,62.00 501.00,62.00              508.71,56.35 518.55,52.14 528.00,50.46              528.00,50.46 537.99,49.69 537.99,49.69              540.68,49.03 545.25,45.34 541.45,42.77              539.01,41.12 534.38,44.08 532.00,45.14              525.12,48.21 517.65,52.69 510.00,52.96              497.82,53.38 490.44,42.43 483.41,34.00              479.29,29.05 476.69,23.20 470.00,27.00              487.03,35.31 490.87,44.60 494.00,62.00              494.00,62.00 493.00,63.00 493.00,63.00              482.10,59.52 473.42,48.68 468.00,39.00              480.09,35.61 475.14,43.88 482.00,48.00              482.47,41.87 480.64,36.01 474.00,34.06              470.95,33.16 468.39,34.64 465.70,31.68              459.44,24.81 460.87,8.54 462.00,0.00 Z            M 106.00,1.00            C 108.32,4.72 107.18,11.86 106.00,16.00              106.00,16.00 99.00,8.00 99.00,8.00              99.00,8.00 106.00,1.00 106.00,1.00 Z            M 152.00,11.00            C 148.87,9.42 145.39,6.97 142.00,6.34              124.22,3.04 123.43,31.29 138.00,35.27              141.24,36.16 144.12,35.75 146.98,33.99              149.40,32.51 150.35,31.18 152.00,29.00              149.04,29.55 144.90,30.69 142.04,29.52              136.38,27.18 135.55,18.41 139.43,14.30              142.91,10.62 147.79,12.56 152.00,11.00 Z            M 173.00,29.05            C 174.00,31.02 174.29,31.90 176.14,33.43              191.33,46.04 206.27,10.60 187.00,6.60              184.76,5.91 182.18,6.12 180.00,6.60              176.46,7.91 175.24,9.22 173.00,12.00              176.08,11.89 180.12,11.15 182.84,12.89              187.47,15.96 188.89,25.39 182.84,29.05              179.69,31.09 176.31,29.93 173.00,29.05 Z            M 453.00,9.00            C 456.14,13.19 456.88,25.51 457.00,31.00              453.40,29.78 442.47,23.71 444.15,19.05              444.81,17.24 451.34,10.73 453.00,9.00 Z            M 45.00,12.38            C 34.01,13.56 23.12,15.37 15.31,24.30              9.25,31.24 18.09,41.84 30.00,42.00              40.53,42.14 48.93,39.73 56.37,31.70              66.33,20.96 56.51,12.76 45.00,12.38 Z            M 157.00,12.00            C 157.00,12.00 156.00,12.00 156.00,12.00              156.00,12.00 157.00,13.00 157.00,13.00              157.00,13.00 157.00,12.00 157.00,12.00 Z            M 501.00,12.38            C 498.64,12.69 496.25,13.02 494.00,13.84              485.50,16.93 483.80,23.95 489.68,30.71              496.04,38.01 504.40,41.89 514.00,42.00              516.66,42.03 520.51,42.13 523.00,41.35              529.29,39.38 536.34,31.53 531.57,25.01              525.00,16.05 511.58,12.45 501.00,12.38 Z            M 257.00,17.00            C 260.29,15.58 263.53,13.86 267.00,12.93              276.07,10.47 286.91,11.56 294.00,18.00              294.00,18.00 267.00,18.00 267.00,18.00              267.00,18.00 257.00,17.00 257.00,17.00 Z            M 328.00,16.00            C 328.00,16.00 335.00,33.00 335.00,33.00              335.00,33.00 334.00,34.00 334.00,34.00              334.00,34.00 322.00,29.00 322.00,29.00              322.00,29.00 328.00,16.00 328.00,16.00 Z            M 224.00,17.00            C 224.00,17.00 226.00,17.00 226.00,17.00              232.21,27.96 231.83,34.40 218.00,37.00              218.00,37.00 224.00,17.00 224.00,17.00 Z            M 252.00,24.00            C 255.93,23.66 263.66,22.69 264.35,28.06              265.11,31.10 262.76,33.72 264.35,36.99              265.84,41.08 271.12,43.51 275.00,45.00              275.00,42.23 275.28,38.66 273.99,36.17              272.69,33.65 269.28,31.47 269.54,28.05              269.96,22.54 281.78,22.99 283.42,26.43              285.41,30.58 281.05,33.70 279.73,37.09              278.85,39.34 279.01,42.57 279.00,45.00              283.27,43.78 288.25,41.82 289.40,36.98              290.19,33.67 287.87,29.35 290.60,26.60              292.81,24.37 299.88,25.00 303.00,25.00              302.89,36.31 300.63,31.80 296.09,37.27              290.69,43.79 288.68,48.46 279.00,48.96              267.91,49.52 265.30,45.74 258.42,38.04              256.68,36.08 253.50,33.22 252.60,30.91              251.88,29.06 252.01,26.02 252.00,24.00 Z            M 46.00,25.00            C 43.91,31.89 36.51,33.14 30.00,33.83              28.12,34.03 24.13,34.25 22.62,32.98              17.23,28.47 29.74,25.50 32.00,25.01              34.80,24.41 37.12,23.97 40.00,24.18              40.00,24.18 46.00,25.00 46.00,25.00 Z            M 500.00,25.00            C 500.00,25.00 511.00,24.30 511.00,24.30              511.00,24.30 518.00,25.31 518.00,25.31              521.11,25.93 530.70,29.76 524.68,33.83              520.30,36.79 505.86,32.64 502.31,29.35              500.65,27.82 500.62,26.99 500.00,25.00 Z            M 99.00,43.00            C 96.84,36.33 95.89,31.42 104.00,29.00              104.00,29.00 101.00,43.00 101.00,43.00              101.00,43.00 99.00,43.00 99.00,43.00 Z            M 457.00,33.00            C 457.00,33.00 459.00,33.00 459.00,33.00              459.00,33.00 468.00,49.00 468.00,49.00              468.00,49.00 451.00,50.00 451.00,50.00              451.00,50.00 457.00,33.00 457.00,33.00 Z            M 107.00,39.00            C 107.00,39.00 109.00,39.00 109.00,39.00              109.00,39.00 113.00,51.00 113.00,51.00              113.00,51.00 104.00,51.00 104.00,51.00              104.00,51.00 107.00,39.00 107.00,39.00 Z            M 252.00,42.00            C 258.53,41.44 261.13,43.00 264.00,49.00              264.00,49.00 252.00,49.00 252.00,49.00              252.00,49.00 252.00,42.00 252.00,42.00 Z            M 289.00,49.00            C 293.26,43.07 294.68,41.29 302.00,42.00              302.00,42.00 302.00,49.00 302.00,49.00              302.00,49.00 289.00,49.00 289.00,49.00 Z            M 160.00,42.00            C 164.78,44.97 166.83,47.46 168.00,53.00              168.00,53.00 151.00,58.00 151.00,58.00              151.00,58.00 160.00,42.00 160.00,42.00 Z            M 204.00,55.00            C 204.00,55.00 212.00,49.00 212.00,49.00              212.00,49.00 214.00,63.00 214.00,63.00              214.00,63.00 204.00,55.00 204.00,55.00 Z            M 320.00,55.00            C 320.00,55.00 333.00,50.00 333.00,50.00              332.16,55.95 330.46,63.05 327.00,68.00              327.00,68.00 320.00,55.00 320.00,55.00 Z            M 468.00,50.00            C 473.39,52.30 480.19,57.84 483.00,63.00              483.00,63.00 467.00,64.00 467.00,64.00              467.00,64.00 468.00,50.00 468.00,50.00 Z            M 251.00,53.00            C 251.00,53.00 278.00,52.00 278.00,52.00              278.00,52.00 303.00,53.00 303.00,53.00              303.00,53.00 301.42,58.81 301.42,58.81              301.42,58.81 294.00,59.92 294.00,59.92              294.00,59.92 284.00,59.17 284.00,59.17              284.00,59.17 273.00,59.17 273.00,59.17              273.00,59.17 253.46,59.17 253.46,59.17              253.46,59.17 251.00,53.00 251.00,53.00 Z            M 84.00,55.00            C 84.00,55.00 95.00,55.00 95.00,55.00              91.94,59.27 89.81,61.72 85.00,64.00              85.00,64.00 84.00,55.00 84.00,55.00 Z            M 220.00,55.00            C 220.00,55.00 230.00,56.00 230.00,56.00              231.06,61.57 228.92,63.86 227.00,69.00              227.00,69.00 225.00,69.00 225.00,69.00              225.00,69.00 220.00,55.00 220.00,55.00 Z            M 337.00,55.00            C 337.00,55.00 351.00,55.00 351.00,55.00              351.27,59.08 351.42,59.60 348.00,62.00              350.74,66.86 355.77,75.00 360.92,66.94              361.86,65.47 362.41,63.63 363.00,62.00              363.00,62.00 358.00,61.00 358.00,61.00              358.00,61.00 358.00,55.00 358.00,55.00              358.00,55.00 374.00,55.00 374.00,55.00              373.50,61.41 371.10,61.86 371.57,65.02              371.81,66.61 372.84,68.30 374.22,69.13              378.52,71.71 382.00,65.90 384.00,63.00              380.76,60.83 381.13,59.72 381.00,56.00              381.00,56.00 396.00,56.00 396.00,56.00              396.00,56.00 396.00,62.00 396.00,62.00              390.07,63.95 391.00,67.09 387.53,71.48              384.28,75.61 380.42,76.36 378.60,78.49              375.84,81.72 377.05,91.09 378.00,95.00              380.68,89.21 379.62,86.36 381.02,84.60              382.37,82.90 385.05,83.04 387.00,83.00              389.10,82.97 393.77,82.73 395.40,84.02              397.89,86.00 398.21,97.80 394.76,99.40              393.20,100.12 389.78,100.00 388.00,100.00              388.00,100.00 368.00,99.00 368.00,99.00              368.00,99.00 343.00,99.00 343.00,99.00              335.73,98.86 335.85,96.79 336.01,90.00              336.07,87.72 336.13,84.58 337.85,82.80              340.33,80.38 349.78,80.25 352.26,82.80              354.21,84.68 354.21,91.74 355.00,95.00              355.00,95.00 357.00,95.00 357.00,95.00              357.00,95.00 358.00,78.00 358.00,78.00              347.53,77.05 345.82,73.31 340.83,65.04              337.81,60.02 337.20,61.20 337.00,55.00 Z            M 86.00,72.00            C 93.81,57.45 106.25,56.00 121.00,56.00              117.80,70.86 105.83,55.66 100.00,67.00              108.63,69.76 112.54,72.05 120.98,66.45              120.98,66.45 128.23,60.72 128.23,60.72              128.23,60.72 144.00,59.00 144.00,59.00              141.81,65.66 132.94,71.87 126.00,72.00              126.00,72.00 86.00,72.00 86.00,72.00 Z            M 170.00,100.00            C 160.84,104.27 150.19,102.00 142.46,95.64              137.08,91.21 134.07,84.53 137.84,78.00              139.88,74.46 143.78,71.08 147.01,68.63              162.32,57.03 181.18,56.43 199.00,61.88              207.78,64.57 220.34,72.05 221.79,82.00              223.18,91.58 217.07,96.41 209.00,99.41              197.93,103.53 179.20,103.13 170.72,93.62              160.76,82.47 177.88,68.86 191.00,72.80              203.76,76.63 201.00,87.70 194.42,89.41              187.60,91.19 188.71,82.01 183.87,80.60              181.08,79.79 180.30,82.84 178.46,83.99              176.27,85.36 174.25,84.61 172.00,83.99              172.00,83.99 171.00,85.00 171.00,85.00              175.19,88.91 177.53,88.00 183.00,88.00              183.00,88.00 184.00,97.00 184.00,97.00              184.00,97.00 186.00,91.00 186.00,91.00              186.00,91.00 187.00,90.00 187.00,90.00              187.00,90.00 200.00,97.00 200.00,97.00              197.92,93.45 197.40,93.13 198.00,89.00              198.00,89.00 213.00,93.00 213.00,93.00              213.00,93.00 208.00,89.00 208.00,89.00              208.54,82.37 210.64,81.37 217.00,81.00              213.73,75.21 205.91,77.00 200.00,77.00              200.00,77.00 200.52,73.00 200.52,73.00              201.10,62.19 189.80,71.36 186.41,70.30              183.41,69.35 182.74,62.66 177.96,63.74              175.14,64.39 170.15,70.63 167.00,73.00              167.00,73.00 164.09,70.09 164.09,70.09              164.09,70.09 162.29,68.52 162.29,68.52              154.68,64.11 160.45,77.09 161.00,79.00              153.37,78.98 152.73,78.81 146.00,75.00              146.16,81.31 149.56,79.07 153.00,85.00              153.00,85.00 144.00,88.00 144.00,88.00              148.43,96.70 155.26,93.24 160.00,87.00              165.04,90.20 167.24,94.85 170.00,100.00 Z            M 260.00,64.00            C 260.00,64.00 295.00,64.00 295.00,64.00              288.89,74.89 266.14,74.98 260.00,64.00 Z            M 479.00,84.00            C 479.00,87.11 479.53,96.31 477.98,98.63              475.52,102.14 464.40,101.91 461.74,98.63              458.44,94.68 461.45,88.21 459.23,85.60              456.02,81.81 447.24,86.99 445.31,79.94              444.58,77.25 444.79,69.85 446.82,67.74              449.56,64.89 459.83,65.47 462.40,68.43              464.73,71.11 464.00,79.37 464.00,83.00              464.00,83.00 476.00,84.00 476.00,84.00              477.75,76.81 476.01,70.07 478.60,68.02              480.01,66.90 484.13,66.89 486.00,66.75              488.65,66.57 491.20,66.26 493.15,68.51              496.09,71.92 493.83,77.64 496.60,80.40              501.19,84.99 511.25,77.44 512.46,88.02              512.46,88.02 512.46,92.00 512.46,92.00              512.40,93.69 512.21,96.06 511.05,97.40              508.78,100.04 498.34,100.37 495.60,98.02              493.26,96.00 494.00,88.06 494.00,85.00              494.00,85.00 479.00,84.00 479.00,84.00 Z            M 70.00,67.00            C 70.00,67.00 78.00,68.00 78.00,68.00              76.01,72.06 75.34,72.71 71.00,74.00              71.00,74.00 70.00,67.00 70.00,67.00 Z            M 28.00,71.00            C 21.41,68.98 14.45,68.03 8.00,71.00              8.00,71.00 28.00,71.00 28.00,71.00 Z            M 400.00,68.00            C 400.00,68.00 411.00,68.00 411.00,68.00              410.41,70.09 408.85,73.19 409.88,75.03              411.36,78.03 415.66,78.69 416.16,75.03              416.36,73.27 414.62,69.68 414.00,68.00              414.00,68.00 426.06,68.00 426.06,68.00              425.85,69.98 425.11,74.01 426.06,75.67              427.49,77.95 430.53,77.47 431.19,74.85              431.80,73.58 431.14,69.59 431.19,68.00              431.19,68.00 442.00,68.00 442.00,68.00              442.00,68.00 443.00,73.00 443.00,73.00              438.77,76.17 438.54,77.23 435.20,80.79              430.65,85.64 427.23,86.23 430.00,96.00              430.31,93.08 430.65,89.93 433.39,88.18              438.63,84.81 443.63,89.38 443.09,94.94              442.64,99.71 437.57,98.99 434.00,99.00              434.00,99.00 407.00,99.00 407.00,99.00              404.45,98.95 401.76,99.07 400.17,96.69              396.46,91.11 400.58,85.24 406.98,86.15              412.25,86.90 412.46,91.84 414.00,96.00              414.00,93.29 414.27,89.49 412.98,87.09              411.52,84.38 407.74,82.12 405.47,79.70              401.85,75.85 401.02,72.99 400.00,68.00 Z            M 541.00,70.00            C 533.21,69.37 526.35,67.70 519.00,72.00              519.00,72.00 532.00,71.09 532.00,71.09              536.15,71.32 537.32,72.60 541.00,70.00 Z            M 8.00,71.00            C 8.00,71.00 7.00,71.00 7.00,71.00              7.00,71.00 8.00,72.00 8.00,72.00              8.00,72.00 8.00,71.00 8.00,71.00 Z            M 366.01,73.00            C 363.64,77.07 362.99,90.65 366.01,94.40              367.14,95.79 368.44,95.73 370.00,96.00              370.00,96.00 368.98,76.11 368.98,76.11              368.98,76.11 366.01,73.00 366.01,73.00 Z            M 36.00,74.00            C 29.62,74.00 10.87,73.07 6.00,75.00              12.38,75.00 31.13,75.93 36.00,74.00 Z            M 536.00,74.00            C 536.00,74.00 516.00,75.00 516.00,75.00              516.00,75.00 536.00,74.00 536.00,74.00 Z            M 537.00,75.00            C 537.00,75.00 536.00,75.00 536.00,75.00              536.00,75.00 537.00,76.00 537.00,76.00              537.00,76.00 537.00,75.00 537.00,75.00 Z            M 47.00,78.03            C 49.41,77.98 56.91,76.98 58.40,78.03              60.55,79.61 60.00,85.52 60.00,88.00              68.14,87.52 69.80,84.82 70.00,77.00              70.00,77.00 82.00,77.00 82.00,77.00              82.00,77.00 82.00,87.00 82.00,87.00              82.00,87.00 93.00,87.00 93.00,87.00              93.13,81.39 93.11,77.20 100.00,77.06              101.42,77.03 103.26,77.14 104.44,78.02              106.55,79.60 106.25,82.85 107.37,84.69              109.00,87.36 112.27,86.96 115.00,87.00              115.00,87.00 114.00,78.00 114.00,78.00              114.00,78.00 128.00,78.00 128.00,78.00              128.01,93.42 130.98,88.77 136.00,99.00              136.00,99.00 128.17,97.43 128.17,97.43              128.17,97.43 124.69,91.02 124.69,91.02              124.69,91.02 117.00,90.00 117.00,90.00              116.81,101.17 116.22,100.00 104.00,100.00              104.00,100.00 104.00,90.00 104.00,90.00              98.66,90.02 94.64,89.40 94.03,96.00              94.03,96.00 94.03,100.00 94.03,100.00              91.17,100.00 83.83,100.69 82.02,98.40              80.70,96.73 81.00,92.14 81.00,90.00              81.00,90.00 71.00,91.00 71.00,91.00              71.00,91.00 72.00,99.00 72.00,99.00              72.00,99.00 59.00,100.00 59.00,100.00              59.00,100.00 58.00,90.00 58.00,90.00              58.00,90.00 48.98,91.00 48.98,91.00              49.50,93.14 50.43,96.44 48.98,98.33              47.10,100.86 39.78,100.30 37.74,98.33              35.55,96.07 36.00,90.93 36.00,88.00              45.60,87.99 46.96,88.07 47.00,78.03 Z            M 230.74,81.99            C 233.72,80.70 243.74,79.93 246.01,82.74              247.14,84.14 246.99,87.22 247.17,89.00              247.41,91.41 248.56,95.20 246.40,97.12              244.93,98.19 232.63,100.53 229.99,97.12              227.77,94.51 228.82,84.67 230.74,81.99 Z            M 306.00,98.00            C 306.00,95.25 305.66,85.23 306.60,83.31              308.16,80.12 320.93,80.01 322.98,82.60              324.56,84.60 324.00,95.00 324.00,98.00              324.00,98.00 306.00,98.00 306.00,98.00 Z            M 423.00,82.00            C 423.00,82.00 421.00,82.00 421.00,82.00              421.00,82.00 420.00,96.00 420.00,96.00              420.00,96.00 423.00,96.00 423.00,96.00              423.00,96.00 423.00,82.00 423.00,82.00 Z            M 347.00,88.00            C 347.00,88.00 343.00,88.00 343.00,88.00              343.00,88.00 344.00,96.00 344.00,96.00              344.00,96.00 346.00,96.00 346.00,96.00              346.00,96.00 347.00,88.00 347.00,88.00 Z            M 391.00,90.00            C 391.00,90.00 387.00,90.00 387.00,90.00              387.00,90.00 387.00,96.00 387.00,96.00              390.83,94.66 390.67,93.91 391.00,90.00 Z            M 17.00,99.00            C 20.81,95.34 24.86,91.47 30.00,90.00              30.00,92.14 30.30,96.73 28.98,98.40              26.81,101.14 19.86,99.81 17.00,99.00 Z            M 272.00,99.00            C 275.20,87.24 281.31,90.27 286.00,99.00              286.00,99.00 272.00,99.00 272.00,99.00 Z            M 518.00,90.00            C 522.48,92.61 526.48,95.38 529.00,100.00              520.38,100.00 514.81,101.26 518.00,90.00 Z"
     style="fill:#ffffff" />
  <g
     inkscape:groupmode="layer"
     id="layer1"
     inkscape:label="Layer 1" />
</svg>
